# xmcd
#
# Track frame offsets: 
#        150
#        14217
#        24598
#        35568
#        47449
#        59235
#        71541
#        85382
#        103356
#        117238
#        128444
#        146141
#        157380
#
# Disc length: 2234 seconds
#
# Revision: 3
# Processed by: cddbd v1.5.2PL0 Copyright (c) Steve Scherf et al.
# Submitted via: ExactAudioCopy v0.99pb5
#
DISCID=c608b80d
DTITLE=The Last Shadow Puppets - The Age Of The Understatement [Japane
DTITLE=se Edition]
DYEAR=2008
DGENRE=Rock
TTITLE0=The Age Of The Understatement
TTITLE1=Standing Next To Me
TTITLE2=Calm Like You
TTITLE3=Separate And Ever Deadly
TTITLE4=The Chamber
TTITLE5=Only The Truth
TTITLE6=My Mistakes Were Made For You
TTITLE7=Black Plant
TTITLE8=I Don't Like You Anymore
TTITLE9=In My Room
TTITLE10=Meeting Place
TTITLE11=The Time Has Come Again
TTITLE12=Two Hearts In Two Weeks
EXTD=YEAR: 2008
EXTT0=
EXTT1=
EXTT2=
EXTT3=
EXTT4=
EXTT5=
EXTT6=
EXTT7=
EXTT8=
EXTT9=
EXTT10=
EXTT11=
EXTT12=
PLAYORDER=
